<svg xmlns="http://www.w3.org/2000/svg" viewBox="0 0 53.21 10"><defs><style>.cls-1{fill:none;}</style></defs><title>Goblet-Pixel-Logo</title><g id="Layer_2" data-name="Layer 2"><g id="Layer_1-2" data-name="Layer 1"><polygon class="cls-1" points="23.09 3.01 23.09 2 22.09 2 22.09 1.01 21.09 1.01 21.09 2 21.09 3.01 21.09 4 21.09 5.01 21.09 6 21.09 7.01 21.09 8 21.09 9.01 22.09 9.01 23.09 9.01 24.09 9.01 24.09 8 24.09 7.01 23.09 7.01 23.09 6 22.09 6 22.09 5.01 23.09 5.01 23.09 4 24.09 4 24.09 3.01 23.09 3.01"/><polygon class="cls-1" points="15.06 6 15.06 5.01 15.06 4 15.06 3.01 14.05 3.01 14.05 2 13.06 2 13.06 1.01 12.05 1.01 12.05 2 11.05 2 11.05 3.01 11.05 4 11.05 5.01 11.05 6 11.05 7.01 12.05 7.01 12.05 8 13.06 8 13.06 9.01 14.05 9.01 14.05 8 15.06 8 15.06 7.01 15.06 6"/><rect x="52.2" y="7.01" width="1.01" height="0.99"/><rect x="52.2" width="1.01" height="1.01"/><rect x="52.2" y="1.01" width="1.01" height="0.99"/><rect x="52.2" y="2" width="1.01" height="1.01"/><rect x="51.2" y="1.01" width="1" height="0.99"/><rect x="51.2" y="2" width="1" height="1.01"/><rect x="51.2" y="8" width="1" height="1.01"/><rect x="50.19" width="1.01" height="1.01"/><rect x="50.19" y="1.01" width="1.01" height="0.99"/><rect x="50.19" y="9.01" width="1.01" height="0.99"/><rect x="49.2" width="0.99" height="1.01"/><rect x="49.2" y="8" width="0.99" height="1.01"/><rect x="49.2" y="9.01" width="0.99" height="0.99"/><rect x="48.19" width="1.01" height="1.01"/><rect x="48.19" y="1.01" width="1.01" height="0.99"/><rect x="48.19" y="2" width="1.01" height="1.01"/><rect x="48.19" y="3.01" width="1.01" height="0.99"/><rect x="48.19" y="4" width="1.01" height="1.01"/><rect x="48.19" y="5.01" width="1.01" height="0.99"/><rect x="48.19" y="6" width="1.01" height="1.01"/><rect x="48.19" y="7.01" width="1.01" height="0.99"/><rect x="48.19" y="8" width="1.01" height="1.01"/><rect x="48.19" y="9.01" width="1.01" height="0.99"/><rect x="47.19" width="1" height="1.01"/><rect x="47.19" y="2" width="1" height="1.01"/><rect x="47.19" y="3.01" width="1" height="0.99"/><rect x="47.19" y="4" width="1" height="1.01"/><rect x="47.19" y="5.01" width="1" height="0.99"/><rect x="47.19" y="6" width="1" height="1.01"/><rect x="47.19" y="7.01" width="1" height="0.99"/><rect x="47.19" y="8" width="1" height="1.01"/><rect x="46.18" width="1.01" height="1.01"/><rect x="45.18" y="1.01" width="1" height="0.99"/><rect x="44.17" y="2" width="1.01" height="1.01"/><rect x="42.16" y="1.01" width="1.01" height="0.99"/><rect x="42.16" y="2" width="1.01" height="1.01"/><rect x="42.16" y="8" width="1.01" height="1.01"/><rect x="41.16" width="1" height="1.01"/><rect x="41.16" y="1.01" width="1" height="0.99"/><rect x="41.16" y="2" width="1" height="1.01"/><rect x="41.16" y="9.01" width="1" height="0.99"/><rect x="40.16" width="1" height="1.01"/><rect x="40.16" y="1.01" width="1" height="0.99"/><rect x="40.16" y="5.01" width="1" height="0.99"/><rect x="40.16" y="9.01" width="1" height="0.99"/><rect x="39.16" width="1" height="1.01"/><rect x="39.16" y="5.01" width="1" height="0.99"/><rect x="39.16" y="9.01" width="1" height="0.99"/><rect x="38.15" y="1.01" width="1.01" height="0.99"/><rect x="38.15" y="5.01" width="1.01" height="0.99"/><rect x="38.15" y="8" width="1.01" height="1.01"/><rect x="38.15" y="9.01" width="1.01" height="0.99"/><rect x="37.15" width="1" height="1.01"/><rect x="37.15" y="1.01" width="1" height="0.99"/><rect x="37.15" y="2" width="1" height="1.01"/><rect x="37.15" y="3.01" width="1" height="0.99"/><rect x="37.15" y="4" width="1" height="1.01"/><rect x="37.15" y="5.01" width="1" height="0.99"/><rect x="37.15" y="6" width="1" height="1.01"/><rect x="37.15" y="7.01" width="1" height="0.99"/><rect x="37.15" y="8" width="1" height="1.01"/><rect x="37.15" y="9.01" width="1" height="0.99"/><rect x="36.14" y="1.01" width="1.01" height="0.99"/><rect x="36.14" y="2" width="1.01" height="1.01"/><rect x="36.14" y="3.01" width="1.01" height="0.99"/><rect x="36.14" y="4" width="1.01" height="1.01"/><rect x="36.14" y="5.01" width="1.01" height="0.99"/><rect x="36.14" y="6" width="1.01" height="1.01"/><rect x="36.14" y="7.01" width="1.01" height="0.99"/><rect x="36.14" y="8" width="1.01" height="1.01"/><rect x="35.14" y="2" width="1" height="1.01"/><rect x="33.13" y="8" width="1" height="1.01"/><rect x="32.12" y="9.01" width="1.01" height="0.99"/><rect x="31.13" y="9.01" width="0.99" height="0.99"/><rect x="30.12" y="9.01" width="1.01" height="0.99"/><rect x="29.12" width="1" height="1.01"/><rect x="29.12" y="1.01" width="1" height="0.99"/><rect x="29.12" y="2" width="1" height="1.01"/><rect x="29.12" y="3.01" width="1" height="0.99"/><rect x="29.12" y="4" width="1" height="1.01"/><rect x="29.12" y="5.01" width="1" height="0.99"/><rect x="29.12" y="6" width="1" height="1.01"/><rect x="29.12" y="7.01" width="1" height="0.99"/><rect x="29.12" y="8" width="1" height="1.01"/><rect x="29.12" y="9.01" width="1" height="0.99"/><rect x="28.11" y="1.01" width="1.01" height="0.99"/><rect x="28.11" y="2" width="1.01" height="1.01"/><rect x="28.11" y="3.01" width="1.01" height="0.99"/><rect x="28.11" y="4" width="1.01" height="1.01"/><rect x="28.11" y="5.01" width="1.01" height="0.99"/><rect x="28.11" y="6" width="1.01" height="1.01"/><rect x="28.11" y="7.01" width="1.01" height="0.99"/><rect x="28.11" y="8" width="1.01" height="1.01"/><rect x="28.11" y="9.01" width="1.01" height="0.99"/><rect x="27.11" y="2" width="1" height="1.01"/><rect x="25.1" y="2" width="1" height="1.01"/><rect x="25.1" y="6" width="1" height="1.01"/><rect x="25.1" y="7.01" width="1" height="0.99"/><rect x="24.09" y="1.01" width="1.01" height="0.99"/><rect x="24.09" y="2" width="1.01" height="1.01"/><rect x="24.09" y="3.01" width="1.01" height="0.99"/><rect x="24.09" y="5.01" width="1.01" height="0.99"/><rect x="24.09" y="6" width="1.01" height="1.01"/><rect x="24.09" y="7.01" width="1.01" height="0.99"/><rect x="24.09" y="8" width="1.01" height="1.01"/><rect x="23.09" width="1" height="1.01"/><rect x="23.09" y="1.01" width="1" height="0.99"/><rect x="23.09" y="2" width="1" height="1.01"/><rect x="23.09" y="4" width="1" height="1.01"/><rect x="23.09" y="5.01" width="1" height="0.99"/><rect x="23.09" y="6" width="1" height="1.01"/><rect x="23.09" y="9.01" width="1" height="0.99"/><rect x="22.09" width="1" height="1.01"/><rect x="22.09" y="1.01" width="1" height="0.99"/><rect x="22.09" y="5.01" width="1" height="0.99"/><rect x="22.09" y="9.01" width="1" height="0.99"/><rect x="21.09" width="1" height="1.01"/><rect x="21.09" y="9.01" width="1" height="0.99"/><rect x="20.08" width="1.01" height="1.01"/><rect x="20.08" y="1.01" width="1.01" height="0.99"/><rect x="20.08" y="2" width="1.01" height="1.01"/><rect x="20.08" y="3.01" width="1.01" height="0.99"/><rect x="20.08" y="4" width="1.01" height="1.01"/><rect x="20.08" y="5.01" width="1.01" height="0.99"/><rect x="20.08" y="6" width="1.01" height="1.01"/><rect x="20.08" y="7.01" width="1.01" height="0.99"/><rect x="20.08" y="8" width="1.01" height="1.01"/><rect x="20.08" y="9.01" width="1.01" height="0.99"/><rect x="19.08" y="1.01" width="1" height="0.99"/><rect x="19.08" y="2" width="1" height="1.01"/><rect x="19.08" y="3.01" width="1" height="0.99"/><rect x="19.08" y="4" width="1" height="1.01"/><rect x="19.08" y="5.01" width="1" height="0.99"/><rect x="19.08" y="6" width="1" height="1.01"/><rect x="19.08" y="7.01" width="1" height="0.99"/><rect x="19.08" y="8" width="1" height="1.01"/><rect x="19.08" y="9.01" width="1" height="0.99"/><rect x="18.07" y="8" width="1.01" height="1.01"/><rect x="18.07" y="2" width="1.01" height="1.01"/><rect x="16.06" y="2" width="1.01" height="1.01"/><rect x="16.06" y="3.01" width="1.01" height="0.99"/><rect x="16.06" y="4" width="1.01" height="1.01"/><rect x="16.06" y="5.01" width="1.01" height="0.99"/><rect x="16.06" y="6" width="1.01" height="1.01"/><rect x="15.06" y="1.01" width="1" height="0.99"/><rect x="15.06" y="2" width="1" height="1.01"/><rect x="15.06" y="3.01" width="1" height="0.99"/><rect x="15.06" y="4" width="1" height="1.01"/><rect x="15.06" y="5.01" width="1" height="0.99"/><rect x="15.06" y="6" width="1" height="1.01"/><rect x="15.06" y="7.01" width="1" height="0.99"/><rect x="14.05" width="1.01" height="1.01"/><rect x="14.05" y="1.01" width="1.01" height="0.99"/><rect x="14.05" y="2" width="1.01" height="1.01"/><rect x="14.05" y="8" width="1.01" height="1.01"/><rect x="13.06" width="0.99" height="1.01"/><rect x="13.06" y="1.01" width="0.99" height="0.99"/><rect x="13.06" y="9.01" width="0.99" height="0.99"/><rect x="12.05" width="1.01" height="1.01"/><rect x="12.05" y="8" width="1.01" height="1.01"/><rect x="12.05" y="9.01" width="1.01" height="0.99"/><rect x="11.05" y="1.01" width="1" height="0.99"/><rect x="11.05" y="7.01" width="1" height="0.99"/><rect x="11.05" y="8" width="1" height="1.01"/><rect x="11.05" y="9.01" width="1" height="0.99"/><rect x="10.04" y="2" width="1.01" height="1.01"/><rect x="10.04" y="3.01" width="1.01" height="0.99"/><rect x="10.04" y="4" width="1.01" height="1.01"/><rect x="10.04" y="5.01" width="1.01" height="0.99"/><rect x="10.04" y="6" width="1.01" height="1.01"/><rect x="10.04" y="7.01" width="1.01" height="0.99"/><rect x="10.04" y="8" width="1.01" height="1.01"/><rect x="9.04" y="3.01" width="1" height="0.99"/><rect x="9.04" y="4" width="1" height="1.01"/><rect x="9.04" y="5.01" width="1" height="0.99"/><rect x="9.04" y="6" width="1" height="1.01"/><rect x="9.04" y="7.01" width="1" height="0.99"/><rect x="7.03" y="1.01" width="1" height="0.99"/><rect x="7.03" y="2" width="1" height="1.01"/><rect x="7.03" y="5.01" width="1" height="0.99"/><rect x="7.03" y="6" width="1" height="1.01"/><rect x="7.03" y="7.01" width="1" height="0.99"/><rect x="6.02" width="1.01" height="1.01"/><rect x="6.02" y="1.01" width="1.01" height="0.99"/><rect x="6.02" y="2" width="1.01" height="1.01"/><rect x="6.02" y="5.01" width="1.01" height="0.99"/><rect x="6.02" y="6" width="1.01" height="1.01"/><rect x="6.02" y="7.01" width="1.01" height="0.99"/><rect x="6.02" y="8" width="1.01" height="1.01"/><rect x="5.02" y="5.01" width="1" height="0.99"/><rect x="5.02" width="1" height="1.01"/><rect x="5.02" y="1.01" width="1" height="0.99"/><rect x="5.02" y="9.01" width="1" height="0.99"/><rect x="4.02" width="1" height="1.01"/><rect x="4.02" y="9.01" width="1" height="0.99"/><rect x="3.02" width="1" height="1.01"/><rect x="3.02" y="8" width="1" height="1.01"/><rect x="3.02" y="9.01" width="1" height="0.99"/><rect x="2.01" y="1.01" width="1.01" height="0.99"/><rect x="2.01" y="7.01" width="1.01" height="0.99"/><rect x="2.01" y="8" width="1.01" height="1.01"/><rect x="2.01" y="9.01" width="1.01" height="0.99"/><rect x="1.01" y="2" width="1" height="1.01"/><rect x="1.01" y="3.01" width="1" height="0.99"/><rect x="1.01" y="4" width="1" height="1.01"/><rect x="1.01" y="5.01" width="1" height="0.99"/><rect x="1.01" y="6" width="1" height="1.01"/><rect x="1.01" y="7.01" width="1" height="0.99"/><rect x="1.01" y="8" width="1" height="1.01"/><rect y="3.01" width="1.01" height="0.99"/><rect y="4" width="1.01" height="1.01"/><rect y="5.01" width="1.01" height="0.99"/><rect y="6" width="1.01" height="1.01"/><rect y="7.01" width="1.01" height="0.99"/></g></g></svg>